<svg xmlns="http://www.w3.org/2000/svg" width="268" height="212" viewBox="0 0 268 212" fill="none">
  <path opacity="0.0991676" d="M144.968 210.048L33.6471 142.239C30.103 140.185 27.0652 136.82 30.5184 134.612L142.236 68.2482C143.91 67.1778 146.455 66.4753 148.162 67.4989L265 137.402C268.545 139.523 269.181 145.43 265.65 147.571L159.638 209.941C155.111 212.648 149.533 212.688 144.968 210.048Z" fill="#6862E6"/>
  <path d="M144.511 178.096L34.6523 112.919C31.1548 110.945 28.1569 107.71 31.5648 105.588L141.814 41.7996C143.467 40.7707 145.978 40.0954 147.662 41.0793L262.966 108.269C266.463 110.308 267.091 115.987 263.606 118.044L158.988 177.993C154.52 180.595 149.015 180.634 144.511 178.096Z" fill="#5B36A0"/>
  <path d="M144.511 175.088L34.6523 109.911C31.1548 107.936 28.1569 104.702 31.5648 102.579L141.814 38.7912C143.467 37.7623 145.978 37.087 147.662 38.071L262.966 105.261C266.463 107.3 267.091 112.978 263.606 115.036L158.988 174.985C154.52 177.587 149.015 177.626 144.511 175.088Z" fill="#6862E6"/>
  <g style="mix-blend-mode:multiply" opacity="0.25">
    <path d="M153.569 89.0938L131.892 101.512C131.892 101.512 165.285 121.969 172.113 124.85L184.598 106.843" fill="url(#paint0_linear_130_4)"/>
  </g>
  <g style="mix-blend-mode:multiply" opacity="0.25">
    <path d="M146.08 148.67L124.397 136.277L102.713 148.695C102.713 148.695 114.007 155.615 124.8 161.969C131.655 157.101 138.515 152.181 146.08 148.67Z" fill="url(#paint1_linear_130_4)"/>
  </g>
  <g style="mix-blend-mode:multiply" opacity="0.46">
    <path d="M99.3632 72.1419L85.6101 80.0198C85.6101 80.0198 86.776 87.2417 93.6045 90.1227L111.611 78.5471" fill="url(#paint2_linear_130_4)"/>
  </g>
  <ellipse cx="106.096" cy="74.1548" rx="8.29544" ry="5.86499" fill="#68E1FD"/>
  <ellipse cx="106.089" cy="70.695" rx="6.21357" ry="2.55307" fill="#974C26"/>
  <path fill-rule="evenodd" clip-rule="evenodd" d="M105.737 62.9843C105.827 64.1354 105.865 65.2866 105.865 66.4377C105.859 67.8782 105.788 69.3188 105.634 70.7528C105.141 70.0647 104.654 69.3445 104.142 68.5342C103.482 67.4988 102.867 66.4377 102.303 65.3509C101.779 64.3844 101.332 63.3781 100.965 62.3412C100.556 61.215 100.229 60.0609 99.9846 58.8878C99.9205 58.6049 99.8629 58.2705 99.8116 57.9618V57.8524V57.5823C99.7604 56.9778 99.7091 56.3348 99.7091 55.6917C99.6807 53.5046 100.102 51.3351 100.945 49.3186C103.188 52.5842 104.7 56.2984 105.378 60.2062C105.421 60.4377 105.461 60.6713 105.5 60.9071C105.5 60.8621 105.59 61.3316 105.59 61.5052L105.654 62.0904C105.684 62.3862 105.711 62.6842 105.737 62.9843ZM102.605 53.4919C102.605 53.492 102.605 53.4922 102.605 53.4923H102.598C102.6 53.4922 102.603 53.492 102.605 53.4919ZM102.605 53.4919C102.762 53.483 102.92 53.5005 103.072 53.5437C102.918 53.3722 102.763 53.205 102.605 53.0421C102.637 53.1902 102.637 53.3438 102.605 53.4919Z" fill="#999A1C"/>
  <path fill-rule="evenodd" clip-rule="evenodd" d="M109.747 64.3477C109.202 65.3959 108.639 66.3541 107.998 67.3252C107.223 68.5406 106.365 69.711 105.513 70.8493C105.455 70.0069 105.455 69.1322 105.455 68.174C105.455 66.9457 105.506 65.7239 105.622 64.502C105.701 63.4039 105.866 62.3137 106.115 61.2415C106.377 60.0715 106.721 58.9217 107.146 57.801C107.261 57.5052 107.383 57.2158 107.505 56.9264L107.505 56.9264L107.537 56.8235L107.665 56.5855C107.953 56.0261 108.261 55.473 108.594 54.9392C109.751 53.0812 111.277 51.483 113.078 50.2447C113.208 54.2126 112.48 58.1617 110.945 61.8203C110.855 62.0304 110.763 62.2447 110.669 62.4634L110.42 63.0165L110.157 63.5502C110.025 63.816 109.888 64.0818 109.747 64.3477ZM112.444 54.2704C112.401 54.4156 112.326 54.5495 112.226 54.6627C112.351 54.7289 112.465 54.8134 112.566 54.9135C112.531 54.7077 112.491 54.4934 112.444 54.2704Z" fill="#999A1C"/>
  <path fill-rule="evenodd" clip-rule="evenodd" d="M109.875 69.1515C109.239 69.5245 108.598 69.8718 107.953 70.1934C107.146 70.5985 106.32 70.9586 105.494 71.3059C105.737 70.8364 106.012 70.3541 106.32 69.8397C106.723 69.1966 107.146 68.5535 107.601 67.9104C107.996 67.3429 108.435 66.8075 108.914 66.3091C109.432 65.7618 109.989 65.2525 110.58 64.785L111.054 64.4313L111.105 64.3862L111.252 64.2962C111.592 64.0904 111.931 63.8911 112.284 63.711C113.502 63.0823 114.837 62.7123 116.204 62.6242C114.999 64.805 113.338 66.6983 111.336 68.174L110.977 68.4377L110.669 68.6564L110.355 68.8557L109.875 69.1515ZM114.551 64.5856C114.482 64.6503 114.398 64.6986 114.308 64.7271V64.7335C114.351 64.8142 114.381 64.9009 114.397 64.9907C114.453 64.8578 114.504 64.7228 114.551 64.5856Z" fill="#999A1C"/>
  <path fill-rule="evenodd" clip-rule="evenodd" d="M105.737 62.9843C105.827 64.1354 105.865 65.2866 105.865 66.4377C105.859 67.8782 105.788 69.3188 105.634 70.7528C105.141 70.0647 104.654 69.3445 104.142 68.5342C103.482 67.4988 102.867 66.4377 102.303 65.3509C101.779 64.3844 101.332 63.3781 100.965 62.3412C100.556 61.215 100.229 60.0609 99.9846 58.8878C99.9205 58.6049 99.8629 58.2705 99.8116 57.9618V57.8524V57.5823C99.7604 56.9778 99.7091 56.3348 99.7091 55.6917C99.6807 53.5046 100.102 51.3351 100.945 49.3186C103.188 52.5842 104.7 56.2984 105.378 60.2062C105.421 60.4377 105.461 60.6713 105.5 60.9071C105.5 60.8621 105.59 61.3316 105.59 61.5052L105.654 62.0904C105.684 62.3862 105.711 62.6842 105.737 62.9843ZM102.605 53.4919C102.605 53.492 102.605 53.4922 102.605 53.4923H102.598C102.6 53.4922 102.603 53.492 102.605 53.4919ZM102.605 53.4919C102.762 53.483 102.92 53.5005 103.072 53.5437C102.918 53.3722 102.763 53.205 102.605 53.0421C102.637 53.1902 102.637 53.3438 102.605 53.4919Z" fill="#999A1C"/>
  <path fill-rule="evenodd" clip-rule="evenodd" d="M109.747 64.3477C109.202 65.3959 108.639 66.3541 107.998 67.3252C107.223 68.5406 106.365 69.711 105.513 70.8493C105.455 70.0069 105.455 69.1322 105.455 68.174C105.455 66.9457 105.506 65.7239 105.622 64.502C105.701 63.4039 105.866 62.3137 106.115 61.2415C106.377 60.0715 106.721 58.9217 107.146 57.801C107.261 57.5052 107.383 57.2158 107.505 56.9264L107.505 56.9264L107.537 56.8235L107.665 56.5855C107.953 56.0261 108.261 55.473 108.594 54.9392C109.751 53.0812 111.277 51.483 113.078 50.2447C113.208 54.2126 112.48 58.1617 110.945 61.8203C110.855 62.0304 110.763 62.2447 110.669 62.4634L110.42 63.0165L110.157 63.5502C110.025 63.816 109.888 64.0818 109.747 64.3477ZM112.444 54.2704C112.401 54.4156 112.326 54.5495 112.226 54.6627C112.351 54.7289 112.465 54.8134 112.566 54.9135C112.531 54.7077 112.491 54.4934 112.444 54.2704Z" fill="#999A1C"/>
  <path fill-rule="evenodd" clip-rule="evenodd" d="M109.875 69.1515C109.239 69.5245 108.598 69.8718 107.953 70.1934C107.146 70.5985 106.32 70.9586 105.494 71.3059C105.737 70.8364 106.012 70.3541 106.32 69.8397C106.723 69.1966 107.146 68.5535 107.601 67.9104C107.996 67.3429 108.435 66.8075 108.914 66.3091C109.432 65.7618 109.989 65.2525 110.58 64.785L111.054 64.4313L111.105 64.3862L111.252 64.2962C111.592 64.0904 111.931 63.8911 112.284 63.711C113.502 63.0823 114.837 62.7123 116.204 62.6242C114.999 64.805 113.338 66.6983 111.336 68.174L110.977 68.4377L110.669 68.6564L110.355 68.8557L109.875 69.1515ZM114.551 64.5856C114.482 64.6503 114.398 64.6986 114.308 64.7271V64.7335C114.351 64.8142 114.381 64.9009 114.397 64.9907C114.453 64.8578 114.504 64.7228 114.551 64.5856Z" fill="#999A1C"/>
  <path d="M162.178 84.2449L150.18 90.0327C149.259 90.4772 148.658 91.3963 148.617 92.4216C148.577 93.4469 149.104 94.4106 149.988 94.9266L178.423 111.583C179.7 112.332 181.338 111.938 182.138 110.689L189.05 99.8977" fill="#A1482D"/>
  <path d="M227.433 56.3283L131.764 0.983927C130.428 0.212773 128.784 0.214722 127.45 0.989043C126.116 1.76336 125.294 3.19268 125.294 4.73958V62.3155C125.294 63.6022 125.977 64.7911 127.087 65.4345L229.08 124.541C229.796 124.958 230.679 124.958 231.395 124.543C232.112 124.127 232.553 123.359 232.551 122.528V65.1901C232.549 61.5294 230.596 58.1495 227.433 56.3283Z" fill="#F47B56"/>
  <path d="M131.77 5.33765L224.551 58.9264C226.567 60.0921 227.81 62.2497 227.811 64.5856V107.743C227.81 108.584 227.363 109.36 226.639 109.781C225.914 110.202 225.021 110.205 224.295 109.788L129.675 55.3058C128.954 54.891 128.51 54.1207 128.509 53.2865V7.23477C128.509 6.45496 128.923 5.7342 129.595 5.34317C130.267 4.95214 131.096 4.95004 131.77 5.33765Z" fill="white"/>
  <ellipse cx="2.01809" cy="2.3148" rx="2.01809" ry="2.3148" transform="matrix(0.981812 -0.189858 0.188336 0.982105 167.955 82.5771)" fill="#AB643C"/>
  <path opacity="0.32" d="M156.707 63.8911L199.824 89.8977L221.124 77.4667L183.067 55.2286" fill="url(#paint3_linear_130_4)"/>
  <path d="M209.99 58.7142L163.376 30.1803C162.868 29.8852 162.24 29.8904 161.737 30.1938C161.233 30.4972 160.934 31.0511 160.954 31.6401V47.8974C160.951 48.4956 161.259 49.0521 161.768 49.3636L208.376 77.2931C208.875 77.5774 209.486 77.5738 209.981 77.2835C210.476 76.9933 210.78 76.4603 210.778 75.8847L211.022 60.7271C211.058 59.9199 210.666 59.1539 209.99 58.7142Z" fill="#E2AC00"/>
  <path d="M198.838 67.0808C200.51 69.4281 203.45 70.084 205.397 68.5535C207.345 67.0229 207.569 63.8782 205.897 61.5373C204.225 59.1965 201.285 58.5341 199.338 60.0647C197.39 61.5952 197.166 64.7335 198.838 67.0808Z" fill="white"/>
  <path d="M194.264 55.8139L175.252 44.3218C174.914 44.1628 174.51 44.2884 174.321 44.6118C174.132 44.9352 174.219 45.3501 174.522 45.5694L193.534 57.0614C193.872 57.2205 194.276 57.0949 194.465 56.7715C194.654 56.4481 194.567 56.0332 194.264 55.8139Z" fill="#F2F2F2"/>
  <path d="M193.483 60.4827L167.277 44.6434C166.946 44.5271 166.579 44.6662 166.407 44.9734C166.235 45.2806 166.307 45.6673 166.579 45.891L192.753 61.7367C193.091 61.8958 193.494 61.7701 193.684 61.4467C193.873 61.1234 193.786 60.7085 193.483 60.4891V60.4827Z" fill="#F2F2F2"/>
  <path d="M200.689 61.8653L154.1 33.3378C153.592 33.0428 152.964 33.048 152.461 33.3514C151.958 33.6548 151.658 34.2086 151.679 34.7976V51.0485C151.671 51.6478 151.978 52.2069 152.486 52.5212L199.094 80.4507C199.598 80.7414 200.219 80.7365 200.718 80.4379C201.218 80.1393 201.518 79.5934 201.503 79.0101L201.746 63.8525C201.768 63.0493 201.366 62.294 200.689 61.8653Z" fill="#F47B56"/>
  <path d="M189.537 70.2319C191.209 72.5792 194.149 73.2352 196.096 71.7046C198.044 70.1741 198.268 67.0293 196.596 64.6885C194.924 62.3476 191.984 61.6853 190.036 63.2158C188.089 64.7464 187.865 67.8846 189.537 70.2319Z" fill="white"/>
  <path d="M184.963 58.965L165.938 47.473C165.6 47.3139 165.196 47.4395 165.007 47.7629C164.818 48.0863 164.905 48.5012 165.208 48.7206L184.22 60.2126C184.558 60.3716 184.962 60.246 185.151 59.9226C185.34 59.5992 185.253 59.1843 184.95 58.965H184.963Z" fill="#F2F2F2"/>
  <path d="M184.175 63.666L157.976 47.8009C157.637 47.6419 157.234 47.7675 157.045 48.0909C156.855 48.4143 156.942 48.8292 157.246 49.0485L183.451 64.8879C183.79 65.0469 184.193 64.9213 184.382 64.5979C184.572 64.2745 184.485 63.8596 184.182 63.6403L184.175 63.666Z" fill="#F2F2F2"/>
  <path d="M188.999 63.7817L142.397 35.2542C141.889 34.9592 141.261 34.9644 140.758 35.2678C140.255 35.5712 139.955 36.125 139.976 36.714V52.9649C139.972 53.5632 140.28 54.1197 140.789 54.4312L187.397 82.3606C187.901 82.6514 188.522 82.6465 189.021 82.3479C189.521 82.0493 189.821 81.5034 189.806 80.9201L190.049 65.7624C190.07 64.9628 189.671 64.2108 188.999 63.7817Z" fill="#68E1FD"/>
  <path d="M188.999 63.7817L142.397 35.2542C141.889 34.9592 141.261 34.9644 140.758 35.2678C140.255 35.5712 139.955 36.125 139.976 36.714V52.9649C139.972 53.5632 140.28 54.1197 140.789 54.4312L187.397 82.3606C187.901 82.6514 188.522 82.6465 189.021 82.3479C189.521 82.0493 189.821 81.5034 189.806 80.9201L190.049 65.7624C190.07 64.9628 189.671 64.2108 188.999 63.7817Z" fill="#68E1FD"/>
  <path d="M177.84 72.1483C179.512 74.4956 182.452 75.1516 184.4 73.621C186.347 72.0905 186.571 68.9458 184.899 66.6049C183.227 64.2641 180.287 63.6017 178.34 65.1322C176.392 66.6628 176.187 69.8011 177.84 72.1483Z" fill="white"/>
  <path d="M173.266 60.8814L154.248 49.3894C153.909 49.2303 153.506 49.3559 153.317 49.6793C153.127 50.0027 153.214 50.4176 153.517 50.637L172.53 62.129C172.868 62.2881 173.271 62.1624 173.461 61.839C173.65 61.5156 173.563 61.1008 173.26 60.8814H173.266Z" fill="#F2F2F2"/>
  <path d="M172.478 65.5567L146.272 49.7173C145.934 49.5583 145.531 49.6839 145.341 50.0073C145.152 50.3307 145.239 50.7456 145.542 50.9649L171.748 66.8043C172.086 66.9633 172.49 66.8377 172.679 66.5143C172.868 66.1909 172.781 65.776 172.478 65.5567Z" fill="#F2F2F2"/>
  <path d="M127.837 62.1869C124.825 64.7891 122.548 68.14 121.232 71.904C118.914 78.3349 124.711 88.843 124.711 88.843L133.73 81.6725" fill="#FF8F6F"/>
  <path d="M126.863 147.21L124.416 145.853L125.057 142.342C125.057 142.342 128.701 142.689 129.022 143.988" fill="#003B94"/>
  <path d="M127.76 147.158C128.311 146.818 128.887 146.515 129.457 146.213C130.873 145.435 132.917 144.631 133.788 143.171C134.153 142.567 134.107 141.798 133.672 141.242C132.391 139.686 129.586 142.245 128.151 140.522C127.869 140.181 127.734 134.773 127.734 134.773L122.277 136.252C122.277 136.252 121.354 147.12 121.457 147.789C121.559 148.457 123.436 149.075 123.436 149.075C123.995 148.956 124.529 148.738 125.012 148.432C125.582 148.014 125.063 142.914 125.793 143.628C126.524 144.342 126.844 147.133 126.844 147.133C127.147 147.179 127.455 147.187 127.76 147.158Z" fill="#F47B56"/>
  <path d="M137.285 152.464L134.838 151.126L135.479 147.615C135.479 147.615 139.124 147.962 139.444 149.261" fill="#003B94"/>
  <path d="M138.208 152.412C138.759 152.072 139.335 151.769 139.905 151.467C141.321 150.689 143.364 149.885 144.235 148.425C144.601 147.821 144.555 147.052 144.12 146.496C142.839 144.94 140.033 147.499 138.598 145.776C138.317 145.435 138.182 140.027 138.182 140.027L132.724 141.506C132.724 141.506 131.796 152.412 131.898 153.056C132.001 153.699 133.877 154.342 133.877 154.342C134.436 154.223 134.97 154.005 135.453 153.699C136.023 153.281 135.504 148.181 136.235 148.895C136.965 149.609 137.285 152.4 137.285 152.4C137.591 152.442 137.901 152.446 138.208 152.412Z" fill="#F47B56"/>
  <path d="M119.503 117.133L117.895 138.721C117.895 138.721 120.457 142.271 129.048 140.297L129.131 125.744" fill="#3E2928"/>
  <path d="M129.425 121.409C129.24 123.268 129.425 143.769 129.425 143.769C129.425 143.769 131.802 148.232 142.147 143.769L142 126.348" fill="#3E2928"/>
  <path d="M118.702 124.264C119.407 124.753 119.65 122.239 120.387 122.67C123.067 124.232 125.911 125.492 128.868 126.425H128.932C129.074 126.356 129.239 126.347 129.387 126.402C129.536 126.456 129.656 126.569 129.72 126.715C131.546 127.262 133.406 127.691 135.287 128.001C137.702 128.387 139.7 126.592 142.179 126.47C142.179 116.94 142.224 89.8141 138.182 84.0262L126.222 79.9876C126.165 80.978 120.419 87.6661 120.56 95.8205C120.72 105.01 119.528 113.679 119.324 116.554C119.291 117.043 118.728 123.744 118.702 124.264Z" fill="#3E2928"/>
  <path d="M139.284 73.068L138.182 84.0005C138.182 84.0005 129.259 84.3606 125.415 81.6982V72.4249" fill="#FF8F6F"/>
  <path d="M150.628 65.8718L149.719 67.1194C150.204 66.1047 150.631 65.0634 151 64.0004C151.256 63.2737 150.097 62.9843 149.84 63.711L149.706 64.084C149.817 63.6981 149.922 63.3101 150.02 62.92C150.099 62.5986 149.904 62.2732 149.584 62.1933C149.264 62.1134 148.94 62.3092 148.86 62.6306C148.609 63.6398 148.308 64.6356 147.957 65.6145C148.153 64.7454 148.294 63.8648 148.38 62.9779C148.457 62.2126 147.259 62.2448 147.188 62.9779C147.089 63.9875 146.909 64.9875 146.65 65.9682C146.65 65.6253 146.618 65.2823 146.554 64.9393C146.537 64.7663 146.446 64.6093 146.304 64.5084C146.272 64.3734 146.234 64.2448 146.189 64.1097C146.095 63.832 145.817 63.6619 145.528 63.7062C145.239 63.7506 145.024 63.9966 145.017 64.2898L144.94 68.7914C144.723 69.2582 144.44 69.6914 144.101 70.0776C144.677 70.4779 145.233 70.9072 145.766 71.3638C146.242 71.7674 146.695 72.1968 147.124 72.65C147.509 72.1698 147.878 71.681 148.233 71.1837C148.277 71.1462 148.315 71.103 148.348 71.0551C149.415 69.4688 150.517 67.9082 151.653 66.3734C152.127 65.8461 151.083 65.2608 150.628 65.8718Z" fill="#FFB5A9"/>
  <path d="M133.621 63.1001C133.621 63.1001 137.836 64.2383 139.546 66.9586C140.617 68.8414 141.561 70.7944 142.371 72.8043L145.484 67.949C145.484 67.949 149.264 69.113 150.763 70.9779C150.763 70.9779 146.279 80.8172 142.371 81.6597C138.464 82.5021 134.313 75.8847 134.313 75.8847C134.313 75.8847 133.455 78.65 133.621 75.6982" fill="#FF8F6F"/>
  <path d="M136.299 73.6146C135.074 72.6138 134.149 71.2915 133.628 69.7946C133.121 68.0647 133.756 66.547 134.345 64.9393C134.983 63.3457 135.355 61.6575 135.447 59.9425C135.498 58.2576 135.306 56.5727 135.191 54.8942C135.174 54.8223 135.174 54.7475 135.191 54.6756C134.627 52.7785 133.474 51.1707 131.2 50.9778C125.313 50.4762 124.98 57.0229 125.025 59.6853C125.069 62.3476 125.351 64.1483 123.398 65.2608C121.444 66.3734 120.035 69.293 121.899 71.6532C123.763 74.0133 122.091 73.1516 120.848 75.248C119.605 77.3445 119.926 79.9619 122.475 80.9072C125.025 81.8526 136.875 80.0777 137.964 78.978C138.351 78.5349 138.55 77.9584 138.521 77.3702C138.256 75.8903 137.466 74.5566 136.299 73.6146Z" fill="#007F68"/>
  <path fill-rule="evenodd" clip-rule="evenodd" d="M143.755 24.5082C143.664 22.7551 143.087 21.0623 142.089 19.6207C141.202 18.1801 139.89 17.052 138.336 16.3924C137.54 16.0358 136.64 15.99 135.812 16.2638C135.022 16.5445 134.37 17.1204 133.993 17.8715C133.538 18.7668 133.334 19.7693 133.403 20.7718C133.459 21.9644 133.737 23.1358 134.223 24.2252C134.709 25.3659 135.38 26.4177 136.209 27.3378C136.908 28.1558 137.785 28.8025 138.771 29.2285C139.119 29.3676 139.483 29.4606 139.854 29.505C140.137 29.5431 140.423 29.5431 140.706 29.505C140.926 29.4743 141.142 29.4137 141.346 29.3249C141.476 29.2736 141.603 29.2135 141.724 29.1449L141.852 29.0548L141.077 27.6079L140.821 27.7494C140.561 27.8701 140.274 27.9232 139.988 27.9037C139.549 27.9084 139.113 27.823 138.707 27.6529C137.541 27.1163 136.581 26.2134 135.972 25.0805C135.207 23.9336 134.764 22.6005 134.691 21.222C134.568 20.1258 134.947 19.0328 135.722 18.2509C136.457 17.5993 137.513 17.4642 138.387 17.9101C139.564 18.401 140.557 19.2515 141.225 20.341C141.968 21.4117 142.397 22.6708 142.461 23.9744C142.508 25.2906 142.222 25.8265 141.603 25.5822C141.382 25.4863 141.198 25.3217 141.077 25.1127C140.935 24.8964 140.856 24.6449 140.847 24.386L140.719 20.7718L139.438 20.2702V20.8426L139.322 20.6368C139.191 20.4485 139.036 20.2778 138.861 20.1287C138.656 19.9422 138.42 19.7941 138.163 19.6914C137.644 19.4355 137.022 19.5333 136.606 19.9358C136.134 20.4591 135.916 21.1652 136.01 21.8651C136.037 22.7295 136.294 23.5709 136.753 24.3024C137.135 24.9756 137.724 25.506 138.432 25.8137C138.729 25.9486 139.059 25.989 139.38 25.9294C139.571 25.9012 139.752 25.8236 139.905 25.7043C139.965 25.6382 140.017 25.5648 140.059 25.4857L140.213 25.7879C140.36 26.0478 140.546 26.2841 140.763 26.4889C141.005 26.7409 141.298 26.9382 141.622 27.0677C142.152 27.3511 142.806 27.2373 143.21 26.7912C143.672 26.1263 143.867 25.3109 143.755 24.5082ZM139.527 23.2413C139.569 23.581 139.475 23.9235 139.265 24.1931C139.068 24.3889 138.768 24.4356 138.522 24.3088C138.178 24.1596 137.893 23.9023 137.708 23.5757C137.483 23.2163 137.357 22.8036 137.343 22.3796C137.298 22.0424 137.401 21.7024 137.625 21.4471C137.84 21.2515 138.154 21.2105 138.413 21.3442C138.742 21.4878 139.014 21.7365 139.188 22.0516C139.4 22.4126 139.517 22.8221 139.527 23.2413Z" fill="#F47B56"/>
  <path fill-rule="evenodd" clip-rule="evenodd" d="M219.388 94.142C219.299 92.3886 218.722 90.6953 217.722 89.2546C216.866 87.7979 215.582 86.6431 214.045 85.9491C213.246 85.5951 212.345 85.5493 211.515 85.8205C210.725 86.1051 210.074 86.6827 209.696 87.4346C209.241 88.3274 209.037 89.328 209.106 90.3285C209.161 91.5211 209.44 92.6926 209.926 93.7819C210.412 94.9247 211.083 95.9786 211.912 96.9009C212.612 97.7166 213.489 98.361 214.474 98.7852C214.819 98.9261 215.181 99.0212 215.551 99.0681C215.835 99.106 216.124 99.106 216.409 99.0681C216.629 99.0337 216.844 98.9733 217.05 98.8881C217.179 98.8367 217.306 98.7766 217.428 98.708L217.556 98.618L216.781 97.171L216.524 97.3125C216.263 97.4306 215.977 97.4836 215.692 97.4668C215.252 97.4667 214.816 97.3792 214.41 97.2096C213.246 96.6989 212.276 95.8265 211.643 94.7208C210.877 93.5745 210.434 92.2411 210.362 90.8623C210.226 89.7637 210.596 88.6629 211.368 87.8719C212.104 87.2241 213.16 87.0917 214.032 87.5375C215.205 88.0286 216.196 88.8765 216.864 89.962C217.607 91.0354 218.035 92.2964 218.1 93.6019C218.139 94.9202 217.876 95.454 217.235 95.2096C217.015 95.1137 216.83 94.9491 216.71 94.7401C216.57 94.5227 216.491 94.2719 216.479 94.0134L216.351 90.3993L215.07 89.9041V90.4764L214.948 90.2706C214.817 90.0805 214.662 89.9077 214.487 89.7562C214.283 89.5693 214.046 89.4212 213.789 89.3189C213.273 89.064 212.653 89.1618 212.239 89.5632C211.763 90.0847 211.545 90.7924 211.643 91.4925C211.67 92.3598 211.929 93.2039 212.393 93.9363C212.773 94.6119 213.362 95.1447 214.071 95.454C214.365 95.5891 214.695 95.6273 215.013 95.5633C215.204 95.5365 215.386 95.4588 215.538 95.3382C215.597 95.2711 215.648 95.1978 215.692 95.1195L215.845 95.4218C215.994 95.6808 216.18 95.9169 216.396 96.1228C216.639 96.3731 216.932 96.5702 217.255 96.7015C217.785 96.9826 218.438 96.869 218.843 96.425C219.305 95.7601 219.499 94.9447 219.388 94.142ZM215.166 92.8752C215.207 93.2157 215.11 93.5584 214.897 93.8269C214.699 94.0206 214.399 94.0647 214.154 93.9363C213.811 93.7846 213.525 93.5251 213.341 93.1967C213.116 92.8396 212.99 92.429 212.976 92.007C212.931 91.6688 213.036 91.3279 213.264 91.0745C213.481 90.881 213.795 90.8426 214.052 90.978C214.379 91.1211 214.65 91.3702 214.82 91.6854C215.036 92.0455 215.155 92.4553 215.166 92.8752Z" fill="#F47B56"/>
  <g style="mix-blend-mode:multiply" opacity="0.25">
    <path d="M90.0685 116.676L68.385 104.29L46.708 116.702C46.708 116.702 58.77 124.264 69.5637 130.618C76.4179 125.756 82.5097 120.194 90.0685 116.676Z" fill="url(#paint4_linear_130_4)"/>
  </g>
  <g filter="url(#filter0_d_130_4)">
    <path fill-rule="evenodd" clip-rule="evenodd" d="M50.9083 81.8778V108.813L71.805 120.831L95.3999 106.818V79.8834" fill="#FF9271"/>
  </g>
  <path d="M71.8051 93.8959V120.831L95.3999 106.818V79.8834L71.8051 93.8959Z" fill="#DF5C34"/>
  <path d="M50.9083 81.8778L75.1538 68L95.3999 79.8834L71.805 93.8959L50.9083 81.8778Z" fill="#F47B56"/>
  <path fill-rule="evenodd" clip-rule="evenodd" d="M79.434 75.747C77.2724 74.5584 74.8181 74.0155 72.36 74.1822C69.7809 74.2278 67.2611 74.9675 65.0627 76.3241C63.9098 76.9833 62.9925 77.9908 62.4411 79.2036C61.9814 80.2537 61.9814 81.4497 62.4411 82.4999C62.9978 83.6911 63.9246 84.6679 65.0819 85.2831C66.5158 86.0971 68.0966 86.616 69.732 86.8095C71.5312 87.0596 73.3582 87.0271 75.1475 86.7133C76.7894 86.4624 78.3668 85.8917 79.7912 85.033C80.2856 84.7295 80.7455 84.3726 81.1626 83.9685C81.479 83.6671 81.7614 83.3316 82.0046 82.968C82.1731 82.6983 82.31 82.4099 82.4129 82.1087C82.4843 81.9208 82.5418 81.7279 82.5851 81.5315C82.5889 81.4589 82.5889 81.3861 82.5851 81.3135L80.2186 81.1788L80.1293 81.5828C80.0008 81.9898 79.7828 82.3624 79.4914 82.673C79.0558 83.1809 78.5409 83.6141 77.9669 83.9556C76.3079 84.9435 74.409 85.4496 72.4812 85.4178C70.5448 85.5 68.6238 85.0405 66.9317 84.0903C65.3817 83.1733 64.5843 82.0317 64.5843 80.7491C64.5716 79.4409 65.3179 78.3143 66.8233 77.3695C68.4775 76.3564 70.3722 75.8093 72.309 75.7854C74.1365 75.6646 75.9602 76.0718 77.565 76.959C79.0747 77.8568 79.3893 78.5815 78.5091 79.133C77.8639 79.4819 77.0876 79.4819 76.4424 79.133L72.2898 76.6768L70.4974 77.7991L71.1353 78.1839H70.7845C70.441 78.2031 70.1008 78.2612 69.7702 78.3571C69.3558 78.4652 68.96 78.636 68.5966 78.8637C67.8241 79.232 67.3287 80.0115 67.3208 80.871C67.3591 81.6662 67.8694 82.3588 68.8645 82.9488C69.9168 83.5561 71.1152 83.8601 72.3281 83.8274C73.5004 83.8505 74.6558 83.544 75.6642 82.9424C76.0968 82.6962 76.4575 82.3402 76.7103 81.9099C76.8622 81.6785 76.9503 81.4107 76.9654 81.1339C76.9513 81.017 76.9213 80.9027 76.8761 80.794L77.3609 80.8325C77.805 80.8456 78.2489 80.8003 78.6813 80.6978C79.2075 80.591 79.7107 80.3913 80.1676 80.1078C81.1307 79.5242 81.539 78.8316 81.4433 78.0364C81.3476 77.2412 80.6715 76.478 79.434 75.747ZM73.8844 79.8128C74.2983 79.9933 74.5968 80.3678 74.6818 80.8133H74.7073C74.7139 81.2232 74.4785 81.5982 74.1077 81.7688C73.6177 82.0597 73.0563 82.2064 72.4875 82.1921C71.8957 82.2058 71.3113 82.0573 70.7971 81.7624C70.3883 81.5823 70.1029 81.2004 70.0445 80.7555C70.0541 80.3283 70.3002 79.9423 70.6823 79.7551C71.1477 79.4751 71.684 79.3369 72.226 79.3575C72.8092 79.3583 73.3817 79.5154 73.8844 79.8128Z" fill="#3E2928"/>
  <defs>
    <filter id="filter0_d_130_4" x="0.908325" y="54.8834" width="144.492" height="140.947" filterUnits="userSpaceOnUse" color-interpolation-filters="sRGB">
      <feFlood flood-opacity="0" result="BackgroundImageFix"/>
      <feColorMatrix in="SourceAlpha" type="matrix" values="0 0 0 0 0 0 0 0 0 0 0 0 0 0 0 0 0 0 127 0" result="hardAlpha"/>
      <feOffset dy="25"/>
      <feGaussianBlur stdDeviation="25"/>
      <feColorMatrix type="matrix" values="0 0 0 0 0.209139 0 0 0 0 0.0691446 0 0 0 0 0.478091 0 0 0 0.497159 0"/>
      <feBlend mode="normal" in2="BackgroundImageFix" result="effect1_dropShadow_130_4"/>
      <feBlend mode="normal" in="SourceGraphic" in2="effect1_dropShadow_130_4" result="shape"/>
    </filter>
    <linearGradient id="paint0_linear_130_4" x1="153.36" y1="93.0298" x2="147.817" y2="109.415" gradientUnits="userSpaceOnUse">
      <stop stop-color="#78B46A"/>
      <stop offset="0.03" stop-color="#7F3500"/>
      <stop offset="1" stop-color="white"/>
    </linearGradient>
    <linearGradient id="paint1_linear_130_4" x1="117.269" y1="126.59" x2="107.944" y2="155.837" gradientUnits="userSpaceOnUse">
      <stop stop-color="#78B46A"/>
      <stop offset="0.03" stop-color="#7F3500"/>
      <stop offset="1" stop-color="white"/>
    </linearGradient>
    <linearGradient id="paint2_linear_130_4" x1="94.3493" y1="65.182" x2="85.7274" y2="85.0317" gradientUnits="userSpaceOnUse">
      <stop stop-color="#78B46A"/>
      <stop offset="0.03" stop-color="#7F3500"/>
      <stop offset="1" stop-color="white"/>
    </linearGradient>
    <linearGradient id="paint3_linear_130_4" x1="214.834" y1="82.9565" x2="211.465" y2="74.4425" gradientUnits="userSpaceOnUse">
      <stop stop-color="white" stop-opacity="0.01"/>
      <stop offset="0.99" stop-color="#DC841E"/>
    </linearGradient>
    <linearGradient id="paint4_linear_130_4" x1="61.775" y1="94.437" x2="51.9654" y2="123.728" gradientUnits="userSpaceOnUse">
      <stop stop-color="#78B46A"/>
      <stop offset="0.03" stop-color="#7F3500"/>
      <stop offset="1" stop-color="white"/>
    </linearGradient>
  </defs>
</svg>